<?xml version="1.0" encoding="UTF-8" standalone="no"?>
<!-- Created with Inkscape (http://www.inkscape.org/) -->

<svg
   xmlns:dc="http://purl.org/dc/elements/1.1/"
   xmlns:cc="http://creativecommons.org/ns#"
   xmlns:rdf="http://www.w3.org/1999/02/22-rdf-syntax-ns#"
   xmlns:svg="http://www.w3.org/2000/svg"
   xmlns="http://www.w3.org/2000/svg"
   xmlns:sodipodi="http://sodipodi.sourceforge.net/DTD/sodipodi-0.dtd"
   xmlns:inkscape="http://www.inkscape.org/namespaces/inkscape"
   width="210mm"
   height="297mm"
   id="svg2"
   version="1.1"
   inkscape:version="0.91 r13725"
   sodipodi:docname="soldato-inglese-inverno.svg">
  <metadata
     id="metadata45">
    <rdf:RDF>
      <cc:Work
         rdf:about="">
        <dc:format>image/svg+xml</dc:format>
        <dc:type
           rdf:resource="http://purl.org/dc/dcmitype/StillImage" />
        <dc:title />
      </cc:Work>
    </rdf:RDF>
  </metadata>
  <defs
     id="defs17" />
  <sodipodi:namedview
     pagecolor="#ffffff"
     bordercolor="#666666"
     borderopacity="1"
     objecttolerance="10"
     gridtolerance="10"
     guidetolerance="10"
     inkscape:pageopacity="0"
     inkscape:pageshadow="2"
     inkscape:window-width="1440"
     inkscape:window-height="851"
     id="namedview15"
     showgrid="false"
     inkscape:zoom="0.67372241"
     inkscape:cx="379.6444"
     inkscape:cy="526.1811"
     inkscape:window-x="0"
     inkscape:window-y="1"
     inkscape:window-maximized="1"
     inkscape:current-layer="layer2"
     showguides="true"
     inkscape:guide-bbox="true"
     units="mm" />
  <g
     inkscape:groupmode="layer"
     id="layer2"
     inkscape:label="Draw"
     transform="translate(0,166.53548)">
    <rect
       style="color:#000000;display:inline;overflow:visible;visibility:visible;fill:#000000;stroke:none;stroke-width:1px;marker:none;enable-background:accumulate"
       id="rect3971"
       width="86.688248"
       height="52.976154"
       x="329.582"
       y="141.5536" />
    <g
       id="g4015"
       transform="matrix(1.8919872,0,0,1.8919872,-931.97436,-527.87233)">
      <rect
         y="570.82373"
         x="647.8244"
         height="151.45601"
         width="36.909447"
         id="rect4011"
         style="color:#000000;display:inline;overflow:visible;visibility:visible;fill:#1a1a1a;stroke:none;stroke-width:1px;marker:none;enable-background:accumulate" />
      <rect
         style="color:#000000;display:inline;overflow:visible;visibility:visible;fill:#1a1a1a;stroke:none;stroke-width:1px;marker:none;enable-background:accumulate"
         id="rect4013"
         width="36.909447"
         height="151.45601"
         x="693.64301"
         y="570.82373" />
    </g>
    <path
       style="color:#000000;display:inline;overflow:visible;visibility:visible;fill:#666666;fill-opacity:1;stroke:#666666;stroke-width:1.9682318px;stroke-linecap:butt;stroke-linejoin:miter;stroke-miterlimit:4;stroke-dasharray:none;stroke-dashoffset:0;stroke-opacity:1;marker:none;enable-background:accumulate"
       d="m 288.27457,458.30116 -10.08766,74.34821 c -1.79249,13.21102 10.73164,24.06371 24.06371,24.06371 l 139.59318,0 c 13.33208,0 24.06372,-10.73164 24.06372,-24.06371 l -10.08766,-74.34821 z"
       id="rect3973"
       inkscape:connector-curvature="0"
       sodipodi:nodetypes="csssscc" />
    <g
       id="g4065"
       style="fill:#b3b3b3"
       transform="matrix(1.8919872,0,0,1.8919872,-932.21364,-527.87233)">
      <path
         style="color:#000000;display:inline;overflow:visible;visibility:visible;fill:#b3b3b3;stroke:none;stroke-width:0.93992454;marker:none;enable-background:accumulate"
         d="m 625.77492,546.61736 c -8.53596,0 -15.46148,-6.52168 -15.46148,-14.55388 0,-0.30599 0.0127,-0.59547 0.0324,-0.89679 l -0.0324,0 0,-27.27097 30.91215,0 0,27.27097 -0.0324,0 c 0.0197,0.30132 0.0324,0.5908 0.0324,0.89679 l 0,0.14047 c -0.0736,7.98269 -6.96699,14.41341 -15.45067,14.41341 z"
         id="path3957"
         inkscape:connector-curvature="0" />
      <path
         inkscape:connector-curvature="0"
         id="path3959"
         d="m 752.95648,546.61736 c -8.53596,0 -15.46148,-6.52168 -15.46148,-14.55388 0,-0.30599 0.0127,-0.59547 0.0324,-0.89679 l -0.0324,0 0,-27.27097 30.91215,0 0,27.27097 -0.0324,0 c 0.0197,0.30132 0.0324,0.5908 0.0324,0.89679 l 0,0.14047 c -0.0736,7.98269 -6.96699,14.41341 -15.45067,14.41341 z"
         style="color:#000000;display:inline;overflow:visible;visibility:visible;fill:#b3b3b3;stroke:none;stroke-width:0.93992454;marker:none;enable-background:accumulate" />
    </g>
    <path
       style="color:#000000;display:inline;overflow:visible;visibility:visible;fill:#666666;fill-opacity:1;stroke:none;stroke-width:1.05573511px;marker:none;enable-background:accumulate"
       d="m 249.43612,172.46673 c -15.60238,0 -28.13347,14.04256 -28.13347,31.44477 l 0,256.83187 301.48913,0 0,-256.83187 c 0,-17.40221 -12.59019,-31.44477 -28.19258,-31.44477 l -245.16308,0 z"
       id="rect3165"
       inkscape:connector-curvature="0" />
    <g
       id="g3944"
       transform="matrix(1.8919872,0,0,1.8919872,-931.36785,-531.6563)">
      <path
         inkscape:connector-curvature="0"
         id="path3172"
         d="m 642.92731,414.49912 0,110.52857"
         style="color:#000000;display:inline;overflow:visible;visibility:visible;fill:none;stroke:#ffffff;stroke-width:3;stroke-linecap:butt;stroke-linejoin:miter;stroke-miterlimit:4;stroke-dasharray:none;stroke-dashoffset:0;stroke-opacity:1;marker:none;enable-background:accumulate" />
      <path
         style="color:#000000;display:inline;overflow:visible;visibility:visible;fill:none;stroke:#ffffff;stroke-width:3;stroke-linecap:butt;stroke-linejoin:miter;stroke-miterlimit:4;stroke-dasharray:none;stroke-dashoffset:0;stroke-opacity:1;marker:none;enable-background:accumulate"
         d="m 734.8992,414.49912 0,110.52857"
         id="path3942"
         inkscape:connector-curvature="0" />
    </g>
    <path
       style="color:#000000;display:inline;overflow:visible;visibility:visible;fill:none;stroke:#ffffff;stroke-width:5.30879116;stroke-linecap:butt;stroke-linejoin:miter;stroke-miterlimit:4;stroke-dasharray:none;stroke-dashoffset:0;stroke-opacity:1;marker:none;enable-background:accumulate"
       d="m 372.0472,155.64634 0,402.34952"
       id="path3990"
       inkscape:connector-curvature="0" />
    <path
       sodipodi:type="arc"
       style="color:#000000;display:inline;overflow:visible;visibility:visible;fill:#e3b632;fill-opacity:1;stroke:none;stroke-width:1;marker:none;enable-background:accumulate"
       id="path3159"
       sodipodi:cx="372.03"
       sodipodi:cy="107.35709"
       sodipodi:rx="64.55455"
       sodipodi:ry="64.55455"
       d="m 436.58455,107.35709 a 64.55455,64.55455 0 0 1 -64.41465,64.5544 64.55455,64.55455 0 0 1 -64.69384,-64.27459 64.55455,64.55455 0 0 1 64.13423,-64.832992 64.55455,64.55455 0 0 1 64.97183,63.993572"
       sodipodi:start="0"
       sodipodi:end="6.2745164"
       sodipodi:open="true" />
    <path
       sodipodi:open="true"
       sodipodi:end="6.2745164"
       sodipodi:start="0"
       d="m 359.54817,101.55678 a 10.719433,10.719433 0 0 1 -10.6962,10.71941 10.719433,10.719433 0 0 1 -10.74257,-10.67295 10.719433,10.719433 0 0 1 10.64964,-10.765668 10.719433,10.719433 0 0 1 10.78873,10.626278"
       sodipodi:ry="10.719433"
       sodipodi:rx="10.719433"
       sodipodi:cy="101.55678"
       sodipodi:cx="348.82874"
       id="path3161"
       style="color:#000000;display:inline;overflow:visible;visibility:visible;fill:#785b2f;fill-opacity:1;stroke:none;stroke-width:1;marker:none;enable-background:accumulate"
       sodipodi:type="arc" />
    <path
       sodipodi:type="arc"
       style="color:#000000;display:inline;overflow:visible;visibility:visible;fill:#785b2f;fill-opacity:1;stroke:none;stroke-width:1;marker:none;enable-background:accumulate"
       id="path3163"
       sodipodi:cx="398.54578"
       sodipodi:cy="101.55678"
       sodipodi:rx="10.719433"
       sodipodi:ry="10.719433"
       d="m 409.26521,101.55678 a 10.719433,10.719433 0 0 1 -10.6962,10.71941 10.719433,10.719433 0 0 1 -10.74257,-10.67295 10.719433,10.719433 0 0 1 10.64964,-10.765668 10.719433,10.719433 0 0 1 10.78873,10.626278"
       sodipodi:start="0"
       sodipodi:end="6.2745164"
       sodipodi:open="true" />
    <g
       id="g3967"
       transform="matrix(1.8919872,0,0,1.8919872,-932.21364,-539.22425)">
      <path
         inkscape:connector-curvature="0"
         id="path3154"
         d="m 688.22787,205.90625 c -24.68829,0 -44.71875,18.86248 -44.71875,42.09375 0,0.88502 0.0366,1.72228 0.0937,2.59375 l -0.0937,0 0,78.875 89.40625,0 0,-78.875 -0.0937,0 c 0.0572,-0.87147 0.0937,-1.70873 0.0937,-2.59375 l 0,-0.40625 c -0.21271,-23.08812 -20.15041,-41.6875 -44.6875,-41.6875 z"
         style="color:#000000;display:inline;overflow:visible;visibility:visible;fill:#1a1a1a;stroke:none;stroke-width:0.93992454;marker:none;enable-background:accumulate" />
      <path
         style="color:#000000;display:inline;overflow:visible;visibility:visible;fill:#1a1a1a;stroke:none;stroke-width:0.93992454;marker:none;enable-background:accumulate"
         d="m 688.22787,337.28657 c -24.68829,0 -44.71875,-3.31924 -44.71875,-7.40725 0,-0.15574 0.0366,-0.30307 0.0937,-0.45643 l -0.0937,0 0,-13.87966 89.40625,0 0,13.87966 -0.0937,0 c 0.0572,0.15336 0.0937,0.30069 0.0937,0.45643 l 0,0.0715 c -0.21271,4.06282 -20.15041,7.33576 -44.6875,7.33576 z"
         id="path3965"
         inkscape:connector-curvature="0" />
    </g>
    <g
       id="g4000"
       transform="matrix(1.5135898,0,0,1.5135898,-667.8034,-376.90005)">
      <path
         transform="translate(0.749746,-8.9969904)"
         sodipodi:open="true"
         sodipodi:end="6.2745164"
         sodipodi:start="0"
         d="m 701.76228,402.24054 a 3.7487299,3.7487299 0 0 1 -3.74061,3.74872 3.7487299,3.7487299 0 0 1 -3.75681,-3.73247 3.7487299,3.7487299 0 0 1 3.72432,-3.7649 3.7487299,3.7487299 0 0 1 3.77296,3.71615"
         sodipodi:ry="3.7487299"
         sodipodi:rx="3.7487299"
         sodipodi:cy="402.24054"
         sodipodi:cx="698.01355"
         id="path3992"
         style="color:#000000;display:inline;overflow:visible;visibility:visible;fill:#ffffff;stroke:none;stroke-width:1;marker:none;enable-background:accumulate"
         sodipodi:type="arc" />
      <path
         sodipodi:type="arc"
         style="color:#000000;display:inline;overflow:visible;visibility:visible;fill:#ffffff;stroke:none;stroke-width:1;marker:none;enable-background:accumulate"
         id="path3994"
         sodipodi:cx="698.01355"
         sodipodi:cy="402.24054"
         sodipodi:rx="3.7487299"
         sodipodi:ry="3.7487299"
         d="m 701.76228,402.24054 a 3.7487299,3.7487299 0 0 1 -3.74061,3.74872 3.7487299,3.7487299 0 0 1 -3.75681,-3.73247 3.7487299,3.7487299 0 0 1 3.72432,-3.7649 3.7487299,3.7487299 0 0 1 3.77296,3.71615"
         sodipodi:start="0"
         sodipodi:end="6.2745164"
         sodipodi:open="true"
         transform="translate(0.749746,21.492695)" />
      <path
         transform="translate(0.749746,51.98238)"
         sodipodi:open="true"
         sodipodi:end="6.2745164"
         sodipodi:start="0"
         d="m 701.76228,402.24054 a 3.7487299,3.7487299 0 0 1 -3.74061,3.74872 3.7487299,3.7487299 0 0 1 -3.75681,-3.73247 3.7487299,3.7487299 0 0 1 3.72432,-3.7649 3.7487299,3.7487299 0 0 1 3.77296,3.71615"
         sodipodi:ry="3.7487299"
         sodipodi:rx="3.7487299"
         sodipodi:cy="402.24054"
         sodipodi:cx="698.01355"
         id="path3996"
         style="color:#000000;display:inline;overflow:visible;visibility:visible;fill:#ffffff;stroke:none;stroke-width:1;marker:none;enable-background:accumulate"
         sodipodi:type="arc" />
      <path
         sodipodi:type="arc"
         style="color:#000000;display:inline;overflow:visible;visibility:visible;fill:#ffffff;stroke:none;stroke-width:1;marker:none;enable-background:accumulate"
         id="path3998"
         sodipodi:cx="698.01355"
         sodipodi:cy="402.24054"
         sodipodi:rx="3.7487299"
         sodipodi:ry="3.7487299"
         d="m 701.76228,402.24054 a 3.7487299,3.7487299 0 0 1 -3.74061,3.74872 3.7487299,3.7487299 0 0 1 -3.75681,-3.73247 3.7487299,3.7487299 0 0 1 3.72432,-3.7649 3.7487299,3.7487299 0 0 1 3.77296,3.71615"
         sodipodi:start="0"
         sodipodi:end="6.2745164"
         sodipodi:open="true"
         transform="translate(0.749746,82.472065)" />
    </g>
    <rect
       style="color:#000000;display:inline;overflow:visible;visibility:visible;fill:#ffffff;stroke:none;stroke-width:1px;marker:none;enable-background:accumulate"
       id="rect4006"
       width="172.34894"
       height="46.204185"
       x="285.87274"
       y="390.56494" />
    <path
       style="color:#000000;display:inline;overflow:visible;visibility:visible;fill:#ffffff;stroke:none;stroke-width:1px;marker:none;enable-background:accumulate"
       d="m 416.0799,210.46546 21.27764,0 0,41.13678 -10.63877,-13.47585 -10.63887,13.47585 z"
       id="rect4008"
       inkscape:connector-curvature="0"
       sodipodi:nodetypes="cccccc" />
    <g
       transform="matrix(1.8919872,0,0,0.12719245,-931.97436,777.07497)"
       id="g4019">
      <rect
         style="color:#000000;display:inline;overflow:visible;visibility:visible;fill:#1a1a1a;stroke:none;stroke-width:1px;marker:none;enable-background:accumulate"
         id="rect4021"
         width="36.909447"
         height="151.45601"
         x="647.8244"
         y="570.82373" />
      <rect
         y="570.82373"
         x="693.64301"
         height="151.45601"
         width="36.909447"
         id="rect4023"
         style="color:#000000;display:inline;overflow:visible;visibility:visible;fill:#1a1a1a;stroke:none;stroke-width:1px;marker:none;enable-background:accumulate" />
    </g>
    <g
       id="g4044"
       transform="matrix(1.8919872,0,0,1.8658845,-283.08381,-527.17083)">
      <path
         inkscape:connector-curvature="0"
         id="path4027"
         d="m 281.57116,344.72155 c -4.30457,0 -7.78201,5.92789 -7.78201,13.21429 0,0.24555 -0.008,0.4702 0,0.71011 l 0,0.0926 0,24.73048 0,11.3927 c 0,1.57744 -0.01,3.07788 0,4.63117 l 0,99.75553 c -0.01,1.55329 0,3.05373 0,4.63117 l 0,11.3927 0,24.73047 0,0.0926 c -0.008,0.23991 0,0.46456 0,0.71011 0,7.28639 3.47744,13.21429 7.78201,13.21429 4.2782,0 7.76999,-5.8493 7.8071,-13.09079 l 0,-0.1235 c 0,-0.2456 -0.017,-0.47015 -0.0251,-0.71011 l 0.0251,0 0,-0.0926 0,-24.73047 0,-10.68258 0,-0.71012 0,-4.63117 0,-99.75553 0,-4.63117 0,-0.71012 0,-10.68258 0,-24.73048 0,-0.0926 -0.0251,0 c 0.008,-0.23996 0.0251,-0.46451 0.0251,-0.71011 l 0,-0.1235 c -0.0371,-7.24149 -3.5289,-13.09079 -7.8071,-13.09079 z"
         style="color:#000000;display:inline;overflow:visible;visibility:visible;fill:#1a1a1a;stroke:none;stroke-width:0.93992454;marker:none;enable-background:accumulate" />
      <path
         style="color:#000000;display:inline;overflow:visible;visibility:visible;fill:#1a1a1a;stroke:none;stroke-width:0.93992454;marker:none;enable-background:accumulate"
         d="m 281.57116,277.26635 c -4.30457,0 -7.78201,1.16963 -7.78201,2.60731 0,0.0485 -0.008,0.0928 0,0.14011 l 0,0.0183 0,4.87957 0,2.24789 c 0,0.31125 -0.01,0.6073 0,0.91378 l 0,19.68275 c -0.01,0.30647 0,0.60253 0,0.91377 l 0,2.24789 0,4.87957 0,0.0183 c -0.008,0.0473 0,0.0917 0,0.14011 0,1.43768 3.47744,2.60731 7.78201,2.60731 4.2782,0 7.76999,-1.15412 7.8071,-2.58294 l 0,-0.0244 c 0,-0.0485 -0.017,-0.0928 -0.0251,-0.14011 l 0.0251,0 0,-0.0183 0,-4.87957 0,-2.10778 0,-0.14011 0,-0.91377 0,-19.68275 0,-0.91378 0,-0.14011 0,-2.10778 0,-4.87957 0,-0.0183 -0.0251,0 c 0.008,-0.0474 0.0251,-0.0917 0.0251,-0.14011 l 0,-0.0244 c -0.0371,-1.42882 -3.5289,-2.58294 -7.8071,-2.58294 z"
         id="path4040"
         inkscape:connector-curvature="0" />
      <path
         inkscape:connector-curvature="0"
         id="path4042"
         d="m 281.57539,312.90306 c -2.54788,0 -4.60618,1.16963 -4.60618,2.60731 0,0.0485 -0.005,0.0928 0,0.14011 l 0,0.0183 0,4.87957 0,2.24789 c 0,0.31125 -0.006,0.6073 0,0.91378 l 0,19.68275 c -0.006,0.30647 0,0.60253 0,0.91377 l 0,2.24789 0,4.87957 0,0.0183 c -0.005,0.0473 0,0.0917 0,0.14011 0,1.43768 2.0583,2.60731 4.60618,2.60731 2.53228,0 4.59908,-1.15412 4.62104,-2.58294 l 0,-0.0244 c 0,-0.0485 -0.0101,-0.0928 -0.0149,-0.14011 l 0.0149,0 0,-0.0183 0,-4.87957 0,-2.10778 0,-0.14011 0,-0.91377 0,-19.68275 0,-0.91378 0,-0.14011 0,-2.10778 0,-4.87957 0,-0.0183 -0.0149,0 c 0.005,-0.0474 0.0149,-0.0917 0.0149,-0.14011 l 0,-0.0244 c -0.022,-1.42882 -2.08876,-2.58294 -4.62104,-2.58294 z"
         style="color:#000000;display:inline;overflow:visible;visibility:visible;fill:#1a1a1a;stroke:none;stroke-width:0.93992454;marker:none;enable-background:accumulate" />
    </g>
  </g>
</svg>
